<?xml version="1.0" encoding="iso-8859-1"?>
<!-- Uploaded to: SVG Repo, www.svgrepo.com, Generator: SVG Repo Mixer Tools -->
<svg height="800px" width="800px" version="1.1" id="Layer_1" xmlns="http://www.w3.org/2000/svg" xmlns:xlink="http://www.w3.org/1999/xlink" 
	 viewBox="0 0 512 512" xml:space="preserve">
<path style="fill:#F9D4DB;" d="M255.872,124.608c-103.808,0-187.904,84.096-187.904,187.904
	c0,87.488,59.904,161.088,140.928,182.016l46.976-17.28l45.824,17.6c81.6-20.48,142.08-94.272,142.08-182.208
	C443.776,208.832,359.68,124.608,255.872,124.608z"/>
<circle style="fill:#FF738E;" cx="177.6" cy="265.6" r="57.984"/>
<circle style="fill:#FD3B6D;" cx="334.144" cy="265.6" r="57.984"/>
<g>
	<path style="fill:#FCB5B5;" d="M208.896,494.528c14.976,3.904,30.784,5.888,46.976,5.888c15.808,0,31.104-1.984,45.824-5.632V465.6
		h-92.8V494.528L208.896,494.528z"/>
	<path style="fill:#FCB5B5;" d="M67.968,124.608h140.928v28.928c14.976,3.904,30.784,5.888,46.976,5.888
		c15.808,0,31.104-1.984,45.824-5.632v-29.184h142.08C443.776-26.112,67.968-26.112,67.968,124.608z"/>
</g>
<g>
	<path style="fill:#FC7576;" d="M332.352,420.288c-15.424,0-27.776-12.48-27.776-27.776s12.48-27.776,27.776-27.776
		c15.296,0,41.792,12.48,41.792,27.776S347.776,420.288,332.352,420.288z"/>
	<path style="fill:#FC7576;" d="M179.392,420.288c15.424,0,27.776-12.48,27.776-27.776s-12.48-27.776-27.776-27.776
		s-41.792,12.48-41.792,27.776S163.968,420.288,179.392,420.288z"/>
</g>
<g>
	<path style="fill:#000030;" d="M178.752,276.992c-5.824,0-10.624,4.672-10.624,10.624c0,5.952,4.672,10.624,10.624,10.624
		c5.824,0,10.624-4.672,10.624-10.624C189.376,281.664,184.704,276.992,178.752,276.992z"/>
	<path style="fill:#000030;" d="M155.584,275.008c5.824,0,10.624-4.672,10.624-10.624c0-5.888-4.672-10.624-10.624-10.624
		c-5.824,0-10.624,4.672-10.624,10.624C144.96,270.272,149.696,275.008,155.584,275.008z"/>
	<path style="fill:#000030;" d="M177.6,335.232c38.4,0,69.568-31.232,69.568-69.632S216,195.968,177.6,195.968
		S107.968,227.2,107.968,265.6S139.2,335.232,177.6,335.232z M177.6,219.2c25.6,0,46.4,20.8,46.4,46.4c0,25.6-20.8,46.4-46.4,46.4
		s-46.4-20.8-46.4-46.4C131.2,240,152,219.2,177.6,219.2z"/>
	<path style="fill:#000030;" d="M264.576,265.6c0,38.4,31.232,69.632,69.568,69.632S403.776,304,403.776,265.6
		s-31.232-69.632-69.632-69.632C295.744,196.032,264.576,227.2,264.576,265.6z M380.544,265.6c0,25.6-20.8,46.4-46.4,46.4
		s-46.4-20.8-46.4-46.4c0-25.6,20.8-46.4,46.4-46.4S380.544,240,380.544,265.6z"/>
	<path style="fill:#000030;" d="M332.352,353.088c-17.728,0-32.704,11.712-37.696,27.776H216.96
		c-4.992-16.128-20.032-27.776-37.696-27.776c-18.816,0-53.312,14.976-53.312,39.424s34.496,39.424,53.312,39.424
		c17.728,0,32.704-11.712,37.696-27.776h77.696c4.992,16.128,20.032,27.776,37.696,27.776c18.816,0,53.312-14.976,53.312-39.424
		S351.296,353.088,332.352,353.088z M179.392,408.704c-12.416,0-30.208-10.496-30.208-16.192c0-5.696,17.728-16.192,30.208-16.192
		c9.024,0,16.192,7.296,16.192,16.192C195.584,401.408,188.288,408.704,179.392,408.704z M332.352,408.704
		c-9.024,0-16.192-7.296-16.192-16.192c0-8.896,7.296-16.192,16.192-16.192c12.416,0,30.208,10.496,30.208,16.192
		C362.56,398.208,344.896,408.704,332.352,408.704z"/>
	<path style="fill:#000030;" d="M349.376,136.192h94.272c6.4,0,11.584-5.184,11.584-11.584c0-39.488-22.4-72.32-64.832-94.976
		C354.752,10.496,306.944,0,255.872,0s-98.88,10.496-134.592,29.632C78.848,52.288,56.448,85.12,56.448,124.608
		c0,6.4,5.184,11.584,11.584,11.584h94.4C98.368,170.176,56.576,237.376,56.576,312.512c0,92.48,63.296,170.496,148.928,193.024
		c0.512,0.192,1.024,0.32,1.472,0.384c15.68,4.032,32.192,6.08,49.088,6.08c16.512,0,32.576-1.984,48-5.824
		c0.384-0.128,0.896-0.192,1.28-0.32c86.208-21.952,150.208-100.224,150.208-193.28C455.36,237.312,413.568,170.176,349.376,136.192
		z M80.448,113.088c0.128-0.384,0.128-0.832,0.192-1.216s0.128-0.832,0.192-1.216c0.128-0.704,0.32-1.28,0.384-1.984
		c0.128-0.384,0.192-0.704,0.192-1.088c0.192-0.832,0.384-1.6,0.576-2.432c0.128-0.192,0.128-0.384,0.192-0.576
		c0.32-1.024,0.576-1.984,0.896-2.88c0.128-0.192,0.192-0.512,0.192-0.704c0.32-0.704,0.512-1.408,0.832-2.112
		c0.128-0.32,0.32-0.704,0.384-1.024c0.192-0.576,0.512-1.216,0.704-1.792c0.192-0.384,0.32-0.704,0.512-1.088
		c0.32-0.512,0.512-1.088,0.832-1.6c0.192-0.384,0.384-0.704,0.512-1.088c0.32-0.512,0.512-1.024,0.832-1.6
		c0.192-0.32,0.384-0.704,0.576-1.024c0.32-0.512,0.576-1.024,0.896-1.472c0.192-0.32,0.384-0.704,0.576-1.024
		c0.32-0.512,0.704-1.024,1.024-1.6c0.192-0.32,0.384-0.576,0.576-0.896c0.384-0.576,0.832-1.088,1.216-1.728
		c0.192-0.192,0.32-0.384,0.512-0.704c1.088-1.6,2.304-3.072,3.52-4.48c0.192-0.192,0.384-0.384,0.512-0.576
		c0.384-0.512,0.896-1.024,1.28-1.472c0.192-0.32,0.512-0.512,0.704-0.832c0.384-0.384,0.832-0.896,1.216-1.28
		c0.32-0.32,0.512-0.512,0.832-0.832c0.384-0.384,0.832-0.832,1.216-1.216c0.32-0.32,0.512-0.512,0.832-0.832
		c0.384-0.384,0.832-0.832,1.216-1.216c0.32-0.32,0.512-0.512,0.832-0.832c0.384-0.384,0.832-0.832,1.28-1.216
		c0.32-0.192,0.512-0.512,0.832-0.704c0.512-0.384,0.896-0.832,1.408-1.216c0.192-0.192,0.512-0.384,0.704-0.576
		c0.576-0.512,1.088-0.896,1.728-1.408c0.128-0.128,0.32-0.192,0.384-0.32c0.704-0.576,1.408-1.088,2.176-1.728
		c0.192-0.128,0.32-0.192,0.512-0.384c0.576-0.384,1.088-0.832,1.728-1.216c0.32-0.192,0.512-0.384,0.832-0.576
		c0.512-0.32,0.896-0.704,1.408-1.024c0.32-0.192,0.576-0.384,0.896-0.576c0.384-0.32,0.896-0.576,1.28-0.896
		c0.32-0.192,0.576-0.384,0.896-0.576c0.384-0.32,0.896-0.576,1.28-0.832c0.32-0.192,0.576-0.384,0.896-0.576
		c0.384-0.32,0.896-0.512,1.28-0.832c0.32-0.192,0.576-0.384,0.896-0.512c0.512-0.32,0.896-0.512,1.28-0.832
		c0.32-0.192,0.576-0.32,0.832-0.512c0.512-0.32,1.024-0.576,1.472-0.832c0.192-0.128,0.512-0.32,0.704-0.384
		c0.704-0.384,1.408-0.832,2.112-1.216c32-17.088,76.992-26.88,123.712-26.88s91.712,9.792,123.712,26.88
		c0.704,0.384,1.408,0.832,2.112,1.216c0.192,0.128,0.512,0.32,0.704,0.384c0.512,0.32,1.024,0.576,1.472,0.832
		c0.32,0.192,0.576,0.32,0.768,0.512c0.384,0.32,0.896,0.512,1.28,0.832c0.32,0.192,0.576,0.384,0.896,0.512
		c0.384,0.32,0.896,0.512,1.28,0.832c0.32,0.192,0.576,0.384,0.896,0.576c0.384,0.32,0.896,0.576,1.28,0.832
		c0.32,0.192,0.576,0.384,0.896,0.576c0.384,0.32,0.896,0.576,1.28,0.896c0.32,0.192,0.576,0.384,0.896,0.576
		c0.512,0.32,0.896,0.704,1.408,1.024c0.32,0.192,0.512,0.384,0.832,0.576c0.576,0.384,1.088,0.768,1.728,1.216
		c0.192,0.128,0.32,0.192,0.512,0.384c0.704,0.512,1.408,1.088,2.176,1.728c0.128,0.128,0.32,0.192,0.384,0.32
		c0.576,0.512,1.088,0.896,1.728,1.408c0.192,0.192,0.512,0.384,0.704,0.576c0.512,0.384,0.896,0.832,1.408,1.216
		c0.32,0.192,0.512,0.512,0.832,0.704c0.384,0.384,0.896,0.832,1.28,1.216c0.32,0.32,0.512,0.512,0.832,0.832
		c0.384,0.384,0.832,0.832,1.216,1.216c0.32,0.32,0.512,0.512,0.832,0.832c0.384,0.384,0.832,0.832,1.216,1.216
		c0.32,0.32,0.512,0.512,0.832,0.832c0.384,0.384,0.832,0.896,1.216,1.28c0.192,0.32,0.512,0.512,0.704,0.832
		c0.384,0.512,0.896,1.024,1.28,1.472c0.192,0.192,0.384,0.384,0.512,0.576c1.216,1.472,2.432,3.008,3.52,4.48
		c0.192,0.192,0.32,0.384,0.512,0.704c0.384,0.576,0.832,1.088,1.216,1.728c0.192,0.32,0.384,0.576,0.576,0.896
		c0.32,0.512,0.704,1.024,1.024,1.6c0.192,0.32,0.384,0.576,0.576,1.024c0.32,0.512,0.576,1.024,0.896,1.472
		c0.192,0.32,0.384,0.704,0.576,1.024c0.32,0.512,0.576,1.024,0.832,1.6c0.192,0.384,0.384,0.704,0.512,1.088
		c0.32,0.512,0.512,1.088,0.768,1.6c0.192,0.384,0.32,0.704,0.512,1.088c0.32,0.576,0.512,1.216,0.704,1.792
		c0.128,0.32,0.32,0.704,0.384,1.024c0.32,0.704,0.512,1.408,0.832,2.112c0.128,0.192,0.192,0.384,0.192,0.704
		c0.32,1.024,0.576,1.92,0.896,2.88c0.128,0.192,0.128,0.384,0.192,0.576c0.192,0.832,0.384,1.6,0.576,2.432
		c0.128,0.384,0.192,0.704,0.192,1.088c0.128,0.704,0.32,1.28,0.384,1.984c0.128,0.384,0.128,0.832,0.192,1.216
		c0.128,0.384,0.128,0.832,0.192,1.216h-129.6c-6.4,0-11.584,5.184-11.584,11.584v19.904c-22.912,4.48-46.784,4.416-69.632-0.192
		V124.8c0-6.4-5.184-11.584-11.584-11.584H80.448V113.088z M290.048,485.504c-11.072,2.176-22.528,3.328-34.176,3.328
		c-12.096,0-23.872-1.216-35.392-3.584v-8h69.632v8.256H290.048z M313.28,479.232V465.6c0-6.4-5.184-11.584-11.584-11.584h-92.8
		c-6.4,0-11.584,5.184-11.584,11.584v13.184c-68.48-24.192-117.696-89.6-117.696-166.272c0-75.392,47.68-141.824,117.696-166.272
		v7.296c0,5.312,3.584,9.92,8.704,11.2c16.192,4.224,33.024,6.272,49.92,6.272c16.384,0,32.768-1.984,48.576-6.016
		c5.184-1.28,8.832-5.888,8.832-11.2v-8c70.72,24.192,118.912,90.816,118.912,166.72C432.192,389.632,382.4,455.296,313.28,479.232z
		"/>
</g>
</svg>